<?xml version="1.0" encoding="utf-8"?>
<!-- Generator: Adobe Illustrator 25.0.0, SVG Export Plug-In . SVG Version: 6.00 Build 0)  -->
<svg version="1.1" id="Layer_1" xmlns="http://www.w3.org/2000/svg" xmlns:xlink="http://www.w3.org/1999/xlink" x="0px" y="0px"
	 viewBox="0 0 2000 2000" style="enable-background:new 0 0 2000 2000;" xml:space="preserve">
<style type="text/css">
	.st0{fill:#172D43;}
	.st1{fill:#555EBA;}
	.st2{clip-path:url(#SVGID_2_);}
	.st3{fill:#76CAFD;}
	.st4{fill:#FF7274;}
	.st5{fill:#FFFFFF;}
</style>
<g id="Group_4611" transform="translate(-2649.685 -2580.199)">
	<g id="Group_1348" transform="translate(2804.972 2590.071)">
		<path id="Path_2936" class="st1" d="M553.14,880.88l-55.17,141.64l-55.16-141.64h-67.75v227.11h48.35V944.55l64.01,163.44h21.11
			l64.01-163.44v163.44h48.69V880.88H553.14z"/>
		<g id="Group_1347" transform="translate(0 0)">
			<g>
				<defs>
					<rect id="SVGID_1_" x="375.06" y="867.6" width="1220.62" height="244.47"/>
				</defs>
				<clipPath id="SVGID_2_">
					<use xlink:href="#SVGID_1_"  style="overflow:visible;"/>
				</clipPath>
				<g id="Group_1346" class="st2">
					<path id="Path_2940" class="st3" d="M1108.31,1061H999.7v-38.13l90.22-141.98h66.75v137.56h29.28V1061h-29.28v46.99h-48.35
						V1061z M1047.02,1018.44h61.28v-94.65L1047.02,1018.44z"/>
					<path id="Path_2937" class="st1" d="M618.97,1025.59c0-46.65,32.69-86.14,86.82-86.14c54.48,0,87.17,39.49,87.17,86.14
						c0,46.99-32.69,86.48-87.17,86.48C651.65,1112.07,618.97,1072.58,618.97,1025.59 M748.01,1025.59
						c0-25.54-15.32-47.67-42.22-47.67s-41.88,22.13-41.88,47.67c0,25.88,14.98,48.01,41.88,48.01
						C732.69,1073.59,748.01,1051.46,748.01,1025.59"/>
					<path id="Path_2938" class="st1" d="M792.29,880.88h43.24v83.76c12-15.91,30.8-25.25,50.74-25.19
						c41.88,0,72.86,32.68,72.86,86.48c0,54.82-31.32,86.14-72.86,86.14c-19.75,0-37.8-8.85-50.74-25.19v21.11h-43.24V880.88z
						 M872.65,1073.59c25.2,0,41.88-19.07,41.88-47.67c0-28.6-16.68-48.01-41.88-48.01c-13.96,0-29.97,8.17-37.12,19.07v58.23
						C842.69,1065.77,858.69,1073.6,872.65,1073.59"/>
					<path id="Path_2939" class="st1" d="M954.73,893.47c0-14.29,11.59-25.88,25.88-25.88c14.29,0,25.88,11.59,25.88,25.88
						c0,14.29-11.59,25.88-25.88,25.88c0,0,0,0,0,0C966.36,919.24,954.84,907.72,954.73,893.47 M959.16,943.53h43.24v164.46h-43.24
						L959.16,943.53z"/>
					<path id="Path_2941" class="st1" d="M1381.74,944.55l-64.01,163.44h-21.11l-64.01-163.44v163.44h-48.35V880.88h67.75
						l55.16,141.64l55.16-141.64h68.1v227.11h-48.69V944.55z"/>
					<path id="Path_2942" class="st1" d="M1513.29,939.44c49.03,0,82.4,36.78,82.4,90.57v9.54h-122.23
						c2.72,20.77,19.41,38.13,47.32,38.13c15.32,0,33.37-6.13,43.93-16.34l19.06,27.92c-16.34,14.98-42.22,22.81-67.75,22.81
						c-50.05,0-87.84-33.71-87.84-86.48C1428.17,977.92,1463.24,939.44,1513.29,939.44 M1472.77,1010.26h81.04
						c-1.02-15.66-11.92-36.43-40.52-36.43C1486.38,973.83,1474.81,993.92,1472.77,1010.26"/>
				</g>
			</g>
		</g>
	</g>
	<g id="Group_4610" transform="translate(2649.685 2580.199)">
		<path id="Path_2895" class="st4" d="M464.06,982.78c-2.81-0.15-5.63-0.2-8.47-0.2c-87.71,0-159.06,65.78-159.06,146.63
			c0,2.74,0.08,5.46,0.24,8.15l0.18,3.05h60.77l-0.32-3.5c-0.24-2.54-0.36-5.1-0.36-7.69c0-50.07,44.2-90.82,98.53-90.82
			c2.7,0,5.37,0.09,8,0.29l3.79,0.28v-56.03L464.06,982.78z"/>
		<path id="Path_2896" class="st3" d="M419.63,862.65l-0.18-3.05h-60.78l0.32,3.5c0.23,2.54,0.35,5.11,0.35,7.69
			c0,50.09-44.2,90.83-98.52,90.83c-2.7,0-5.37-0.11-8.01-0.29l-3.78-0.28v56.01l3.32,0.17c2.8,0.13,5.62,0.2,8.46,0.2
			c87.71,0,159.06-65.78,159.06-146.64C419.87,868.04,419.79,865.34,419.63,862.65"/>
	</g>
</g>
</svg>
